<svg xmlns="http://www.w3.org/2000/svg" xmlns:xlink="http://www.w3.org/1999/xlink" width="500" zoomAndPan="magnify" viewBox="0 0 375 374.999991" height="500" preserveAspectRatio="xMidYMid meet" version="1.0"><defs><g/><clipPath id="f00283ecc4"><path d="M 51.105469 142.203125 L 141.703125 142.203125 L 141.703125 232.796875 L 51.105469 232.796875 Z M 51.105469 142.203125 " clip-rule="nonzero"/></clipPath><clipPath id="f552fc3dc4"><path d="M 96.40625 142.203125 C 71.386719 142.203125 51.105469 162.480469 51.105469 187.5 C 51.105469 212.519531 71.386719 232.796875 96.40625 232.796875 C 121.421875 232.796875 141.703125 212.519531 141.703125 187.5 C 141.703125 162.480469 121.421875 142.203125 96.40625 142.203125 " clip-rule="nonzero"/></clipPath><clipPath id="0dcc4e6de1"><path d="M 91 147.800781 L 95 147.800781 L 95 152 L 91 152 Z M 91 147.800781 " clip-rule="nonzero"/></clipPath><clipPath id="81af9330fc"><path d="M 75.363281 175 L 117.363281 175 L 117.363281 227.300781 L 75.363281 227.300781 Z M 75.363281 175 " clip-rule="nonzero"/></clipPath><clipPath id="f34e0a7a35"><path d="M 93 208.617188 L 99 208.617188 L 99 220.617188 L 93 220.617188 Z M 93 208.617188 " clip-rule="nonzero"/></clipPath><clipPath id="59aaa33c60"><path d="M 86.902344 210 L 93 210 L 93 219 L 86.902344 219 Z M 86.902344 210 " clip-rule="nonzero"/></clipPath><clipPath id="14a9185189"><path d="M 100 210 L 105.652344 210 L 105.652344 219 L 100 219 Z M 100 210 " clip-rule="nonzero"/></clipPath></defs><g clip-path="url(#f00283ecc4)"><g clip-path="url(#f552fc3dc4)"><path fill="#737373" d="M 51.105469 142.203125 L 141.703125 142.203125 L 141.703125 232.796875 L 51.105469 232.796875 Z M 51.105469 142.203125 " fill-opacity="1" fill-rule="nonzero"/></g></g><path fill="#ffffff" d="M 89.585938 168.621094 C 90.996094 168.621094 92.136719 167.480469 92.136719 166.070312 C 92.136719 164.65625 90.996094 163.511719 89.585938 163.511719 C 88.179688 163.511719 87.042969 164.65625 87.042969 166.070312 C 87.042969 167.480469 88.179688 168.621094 89.585938 168.621094 " fill-opacity="1" fill-rule="nonzero"/><path fill="#ffffff" d="M 97.542969 157.847656 C 98.949219 157.847656 99.957031 156.570312 99.957031 155.15625 C 99.957031 153.746094 98.949219 152.734375 97.542969 152.734375 C 96.136719 152.734375 94.992188 153.882812 94.992188 155.292969 C 94.992188 156.707031 96.136719 157.847656 97.542969 157.847656 " fill-opacity="1" fill-rule="nonzero"/><path fill="#ffffff" d="M 96.644531 162.09375 C 96.644531 161.078125 95.820312 160.253906 94.804688 160.253906 C 93.789062 160.253906 92.964844 161.078125 92.964844 162.09375 C 92.964844 163.117188 93.789062 163.9375 94.804688 163.9375 C 95.820312 163.9375 96.644531 163.117188 96.644531 162.09375 " fill-opacity="1" fill-rule="nonzero"/><g clip-path="url(#0dcc4e6de1)"><path fill="#ffffff" d="M 92.964844 151.636719 C 93.980469 151.636719 94.804688 150.8125 94.804688 149.789062 C 94.804688 148.773438 93.847656 147.808594 92.832031 147.808594 C 91.816406 147.808594 91.128906 148.773438 91.128906 149.789062 C 91.128906 150.8125 91.949219 151.636719 92.964844 151.636719 " fill-opacity="1" fill-rule="nonzero"/></g><path fill="#ffffff" d="M 96.8125 173.882812 C 98.535156 173.882812 99.929688 172.476562 99.929688 170.753906 C 99.929688 169.027344 98.667969 167.761719 96.949219 167.761719 C 95.226562 167.761719 93.828125 169.160156 93.828125 170.886719 C 93.828125 172.613281 95.089844 173.882812 96.8125 173.882812 " fill-opacity="1" fill-rule="nonzero"/><g clip-path="url(#81af9330fc)"><path fill="#ffffff" d="M 113.054688 223.722656 C 112.605469 224.386719 111.832031 224.785156 111.011719 224.785156 L 81.472656 224.785156 C 80.644531 224.785156 79.878906 224.386719 79.433594 223.722656 C 78.980469 223.066406 78.914062 222.234375 79.25 221.515625 C 79.601562 220.765625 79.847656 219.941406 80.132812 219.167969 C 81.335938 215.898438 82.625 212.667969 83.789062 209.390625 C 84.796875 206.5625 85.570312 203.640625 89.363281 204.316406 C 90.359375 204.496094 91.21875 204.726562 92.234375 204.722656 C 94.214844 204.71875 96.046875 203.757812 98.050781 203.78125 C 99.042969 203.792969 100.140625 204.128906 101.148438 204.230469 C 102.273438 204.347656 103.34375 204.066406 104.457031 204.015625 C 107.4375 203.890625 107.242188 205.648438 108.121094 207.945312 C 109.847656 212.460938 111.53125 216.992188 113.234375 221.515625 C 113.574219 222.234375 113.5 223.066406 113.054688 223.722656 Z M 116.972656 223.125 L 105.527344 195.136719 L 105.527344 179.402344 C 106.496094 179.402344 107.285156 178.613281 107.285156 177.644531 C 107.285156 176.671875 106.496094 175.882812 105.527344 175.882812 L 87.222656 175.882812 C 86.253906 175.882812 85.46875 176.671875 85.46875 177.644531 C 85.46875 178.613281 86.253906 179.402344 87.222656 179.402344 L 87.222656 195.136719 L 75.777344 223.125 C 75.371094 224.039062 75.453125 225.101562 75.996094 225.945312 C 76.539062 226.785156 77.476562 227.289062 78.472656 227.289062 L 114.28125 227.289062 C 115.28125 227.289062 116.210938 226.785156 116.757812 225.945312 C 117.300781 225.101562 117.382812 224.039062 116.972656 223.125 " fill-opacity="1" fill-rule="nonzero"/></g><g clip-path="url(#f34e0a7a35)"><path fill="#000000" d="M 98.25 208.660156 C 98.164062 208.632812 98.070312 208.617188 97.980469 208.617188 C 97.613281 208.617188 97.289062 208.855469 97.171875 209.203125 L 93.761719 219.488281 C 93.734375 219.574219 93.71875 219.664062 93.71875 219.757812 C 93.71875 220.230469 94.105469 220.617188 94.570312 220.617188 C 94.9375 220.617188 95.265625 220.378906 95.378906 220.03125 L 98.789062 209.746094 C 98.820312 209.65625 98.832031 209.5625 98.832031 209.472656 C 98.832031 209.105469 98.597656 208.777344 98.25 208.660156 " fill-opacity="1" fill-rule="nonzero"/></g><g clip-path="url(#59aaa33c60)"><path fill="#000000" d="M 91.765625 210.582031 C 91.605469 210.421875 91.390625 210.332031 91.164062 210.332031 C 90.9375 210.332031 90.71875 210.421875 90.5625 210.582031 L 87.152344 214.011719 C 86.992188 214.171875 86.902344 214.390625 86.902344 214.617188 C 86.902344 214.84375 86.992188 215.0625 87.152344 215.222656 L 90.5625 218.652344 C 90.71875 218.804688 90.933594 218.890625 91.152344 218.890625 C 91.621094 218.890625 92.003906 218.503906 92.003906 218.035156 C 92.003906 217.8125 91.917969 217.601562 91.765625 217.4375 L 88.960938 214.617188 L 91.765625 211.792969 C 91.925781 211.632812 92.015625 211.414062 92.015625 211.1875 C 92.015625 210.960938 91.925781 210.742188 91.765625 210.582031 " fill-opacity="1" fill-rule="nonzero"/></g><g clip-path="url(#14a9185189)"><path fill="#000000" d="M 105.398438 214.011719 L 101.992188 210.582031 C 101.832031 210.429688 101.617188 210.339844 101.398438 210.339844 C 100.933594 210.339844 100.546875 210.730469 100.546875 211.199219 C 100.546875 211.417969 100.632812 211.632812 100.785156 211.792969 L 103.59375 214.617188 L 100.785156 217.4375 C 100.621094 217.601562 100.527344 217.824219 100.527344 218.054688 C 100.527344 218.527344 100.910156 218.914062 101.378906 218.914062 C 101.609375 218.914062 101.832031 218.820312 101.992188 218.652344 L 105.398438 215.222656 C 105.558594 215.0625 105.648438 214.84375 105.648438 214.617188 C 105.648438 214.390625 105.558594 214.171875 105.398438 214.011719 " fill-opacity="1" fill-rule="nonzero"/></g><g fill="#545454" fill-opacity="1"><g transform="translate(155.161607, 199.874591)"><g><path d="M 12.203125 0.375 C 9.960938 0.375 8.039062 -0.101562 6.4375 -1.0625 C 4.832031 -2.019531 3.59375 -3.359375 2.71875 -5.078125 C 1.851562 -6.804688 1.421875 -8.800781 1.421875 -11.0625 C 1.421875 -13.320312 1.851562 -15.316406 2.71875 -17.046875 C 3.59375 -18.773438 4.832031 -20.125 6.4375 -21.09375 C 8.039062 -22.070312 9.960938 -22.5625 12.203125 -22.5625 C 14.859375 -22.5625 17.035156 -21.898438 18.734375 -20.578125 C 20.441406 -19.253906 21.503906 -17.398438 21.921875 -15.015625 L 17.453125 -15.015625 C 17.179688 -16.222656 16.597656 -17.171875 15.703125 -17.859375 C 14.804688 -18.546875 13.617188 -18.890625 12.140625 -18.890625 C 10.085938 -18.890625 8.476562 -18.191406 7.3125 -16.796875 C 6.15625 -15.398438 5.578125 -13.488281 5.578125 -11.0625 C 5.578125 -8.632812 6.15625 -6.726562 7.3125 -5.34375 C 8.476562 -3.957031 10.085938 -3.265625 12.140625 -3.265625 C 13.617188 -3.265625 14.804688 -3.585938 15.703125 -4.234375 C 16.597656 -4.878906 17.179688 -5.769531 17.453125 -6.90625 L 21.921875 -6.90625 C 21.503906 -4.625 20.441406 -2.835938 18.734375 -1.546875 C 17.035156 -0.265625 14.859375 0.375 12.203125 0.375 Z M 12.203125 0.375 "/></g></g></g><g fill="#545454" fill-opacity="1"><g transform="translate(183.427782, 199.874591)"><g><path d="M 12.546875 0.375 C 10.328125 0.375 8.390625 -0.109375 6.734375 -1.078125 C 5.078125 -2.046875 3.773438 -3.390625 2.828125 -5.109375 C 1.890625 -6.835938 1.421875 -8.832031 1.421875 -11.09375 C 1.421875 -13.351562 1.890625 -15.34375 2.828125 -17.0625 C 3.773438 -18.78125 5.078125 -20.125 6.734375 -21.09375 C 8.390625 -22.070312 10.328125 -22.5625 12.546875 -22.5625 C 14.742188 -22.5625 16.675781 -22.070312 18.34375 -21.09375 C 20.007812 -20.125 21.304688 -18.78125 22.234375 -17.0625 C 23.171875 -15.34375 23.640625 -13.351562 23.640625 -11.09375 C 23.640625 -8.832031 23.171875 -6.835938 22.234375 -5.109375 C 21.304688 -3.390625 20.007812 -2.046875 18.34375 -1.078125 C 16.675781 -0.109375 14.742188 0.375 12.546875 0.375 Z M 12.546875 -3.265625 C 14.660156 -3.265625 16.34375 -3.960938 17.59375 -5.359375 C 18.851562 -6.753906 19.484375 -8.664062 19.484375 -11.09375 C 19.484375 -13.519531 18.851562 -15.429688 17.59375 -16.828125 C 16.34375 -18.222656 14.660156 -18.921875 12.546875 -18.921875 C 10.429688 -18.921875 8.738281 -18.222656 7.46875 -16.828125 C 6.207031 -15.429688 5.578125 -13.519531 5.578125 -11.09375 C 5.578125 -8.664062 6.207031 -6.753906 7.46875 -5.359375 C 8.738281 -3.960938 10.429688 -3.265625 12.546875 -3.265625 Z M 12.546875 -3.265625 "/></g></g></g><g fill="#545454" fill-opacity="1"><g transform="translate(213.405077, 199.874591)"><g><path d="M 2.15625 0 L 2.15625 -22.1875 L 9.734375 -22.1875 C 12.328125 -22.1875 14.460938 -21.722656 16.140625 -20.796875 C 17.816406 -19.878906 19.0625 -18.59375 19.875 -16.9375 C 20.695312 -15.28125 21.109375 -13.332031 21.109375 -11.09375 C 21.109375 -8.851562 20.695312 -6.898438 19.875 -5.234375 C 19.0625 -3.578125 17.816406 -2.289062 16.140625 -1.375 C 14.460938 -0.457031 12.328125 0 9.734375 0 Z M 6.203125 -3.484375 L 9.53125 -3.484375 C 11.394531 -3.484375 12.863281 -3.785156 13.9375 -4.390625 C 15.019531 -4.992188 15.789062 -5.859375 16.25 -6.984375 C 16.71875 -8.117188 16.953125 -9.488281 16.953125 -11.09375 C 16.953125 -12.675781 16.71875 -14.035156 16.25 -15.171875 C 15.789062 -16.316406 15.019531 -17.195312 13.9375 -17.8125 C 12.863281 -18.425781 11.394531 -18.734375 9.53125 -18.734375 L 6.203125 -18.734375 Z M 6.203125 -3.484375 "/></g></g></g><g fill="#545454" fill-opacity="1"><g transform="translate(240.847384, 199.874591)"><g><path d="M 2.15625 0 L 2.15625 -22.1875 L 16.640625 -22.1875 L 16.640625 -18.921875 L 6.203125 -18.921875 L 6.203125 -12.828125 L 15.6875 -12.828125 L 15.6875 -9.671875 L 6.203125 -9.671875 L 6.203125 -3.265625 L 16.640625 -3.265625 L 16.640625 0 Z M 2.15625 0 "/></g></g></g><g fill="#545454" fill-opacity="1"><g transform="translate(264.075262, 199.874591)"><g><path d="M 2.15625 0 L 2.15625 -22.1875 L 6.203125 -22.1875 L 6.203125 -3.171875 L 16.03125 -3.171875 L 16.03125 0 Z M 2.15625 0 "/></g></g></g><g fill="#545454" fill-opacity="1"><g transform="translate(286.447579, 199.874591)"><g><path d="M 0.734375 0 L 8.84375 -22.1875 L 13.40625 -22.1875 L 21.515625 0 L 17.203125 0 L 15.4375 -5.140625 L 6.78125 -5.140625 L 4.96875 0 Z M 7.890625 -8.296875 L 14.328125 -8.296875 L 11.09375 -17.515625 Z M 7.890625 -8.296875 "/></g></g></g><g fill="#545454" fill-opacity="1"><g transform="translate(313.573004, 199.874591)"><g><path d="M 2.15625 0 L 2.15625 -22.1875 L 11.0625 -22.1875 C 13.363281 -22.1875 15.117188 -21.648438 16.328125 -20.578125 C 17.546875 -19.515625 18.15625 -18.148438 18.15625 -16.484375 C 18.15625 -15.085938 17.78125 -13.96875 17.03125 -13.125 C 16.28125 -12.289062 15.367188 -11.726562 14.296875 -11.4375 C 15.554688 -11.1875 16.597656 -10.554688 17.421875 -9.546875 C 18.242188 -8.546875 18.65625 -7.378906 18.65625 -6.046875 C 18.65625 -4.296875 18.019531 -2.847656 16.75 -1.703125 C 15.488281 -0.566406 13.695312 0 11.375 0 Z M 6.203125 -12.859375 L 10.453125 -12.859375 C 11.597656 -12.859375 12.472656 -13.125 13.078125 -13.65625 C 13.691406 -14.1875 14 -14.9375 14 -15.90625 C 14 -16.832031 13.695312 -17.566406 13.09375 -18.109375 C 12.5 -18.648438 11.597656 -18.921875 10.390625 -18.921875 L 6.203125 -18.921875 Z M 6.203125 -3.296875 L 10.734375 -3.296875 C 11.941406 -3.296875 12.878906 -3.570312 13.546875 -4.125 C 14.210938 -4.6875 14.546875 -5.476562 14.546875 -6.5 C 14.546875 -7.53125 14.195312 -8.34375 13.5 -8.9375 C 12.800781 -9.53125 11.859375 -9.828125 10.671875 -9.828125 L 6.203125 -9.828125 Z M 6.203125 -3.296875 "/></g></g></g></svg>